<svg xmlns="http://www.w3.org/2000/svg" width="210mm" height="297mm" viewBox="0 0 210 297">
<title>車両点検表</title>

<style>
  .paper { fill:#fff; stroke:#111; stroke-width:0.35; }
  .line { stroke:#111; stroke-width:0.35; fill:none; }
  .line2 { stroke:#111; stroke-width:0.7; fill:none; }
  .dash { stroke:#111; stroke-width:0.35; stroke-dasharray:2 1.5; fill:none; }
  .shade { fill:#ededed; stroke:#111; stroke-width:0.35; }
  .txt { font-family:'Yu Gothic','YuGothic','Noto Sans JP',sans-serif; fill:#111; font-size:3.4px; }
  .small { font-family:'Yu Gothic','YuGothic','Noto Sans JP',sans-serif; fill:#111; font-size:2.7px; }
  .tiny { font-family:'Yu Gothic','YuGothic','Noto Sans JP',sans-serif; fill:#111; font-size:2.25px; }
  .head { font-family:'Yu Mincho','YuMincho','Noto Serif JP',serif; fill:#111; font-size:8px; font-weight:700; letter-spacing:1.2px; }
  .subhead { font-family:'Yu Gothic','YuGothic','Noto Sans JP',sans-serif; fill:#111; font-size:4.2px; font-weight:700; }
  .hand { font-family:'Yu Gothic','YuGothic','Noto Sans JP',sans-serif; fill:#222; font-size:3.7px; font-style:italic; }
</style>

<rect class="paper" x="0.5" y="0.5" width="209" height="296"/>
<text class="tiny" x="15" y="12" text-anchor="start" >様式 3-1</text>
<text class="head" x="105" y="18" text-anchor="middle" >車 両 点 検 表</text>
<text class="txt" x="155" y="10" text-anchor="start" >No. 000287</text>
<text class="small" x="145" y="18" text-anchor="start" >点検日</text>
<line class="line" x1="159" y1="19" x2="193" y2="19"/>
<text class="hand" x="161" y="17.5" text-anchor="start" >2026年9月16日</text>
<text class="small" x="105" y="25" text-anchor="middle" >（始業前・終業後・定期・臨時）</text>
<rect class="line" x="15" y="31" width="180" height="33"/>
<line class="line" x1="15" y1="42" x2="195" y2="42"/>
<line class="line" x1="15" y1="53" x2="195" y2="53"/>
<line class="line" x1="52" y1="31" x2="52" y2="64"/>
<line class="line" x1="113" y1="31" x2="113" y2="64"/>
<line class="line" x1="149" y1="31" x2="149" y2="64"/>
<text class="tiny" x="17" y="37" text-anchor="start" >車両管理番号</text>
<text class="tiny" x="115" y="37" text-anchor="start" >車種</text>
<text class="tiny" x="17" y="48" text-anchor="start" >登録番号</text>
<text class="tiny" x="115" y="48" text-anchor="start" >使用者</text>
<text class="tiny" x="17" y="59" text-anchor="start" >点検実施時間</text>
<text class="tiny" x="115" y="59" text-anchor="start" >走行距離</text>
<text class="hand" x="55" y="38" text-anchor="start" >A-0123</text>
<text class="hand" x="152" y="38" text-anchor="start" >トラック（2t）</text>
<text class="hand" x="55" y="49" text-anchor="start" >品川100 あ1234</text>
<text class="hand" x="152" y="49" text-anchor="start" >山田 太郎</text>
<text class="hand" x="55" y="60" text-anchor="start" >8:00 ～ 8:20</text>
<text class="hand" x="152" y="60" text-anchor="start" >125,430 km</text>
<text class="subhead" x="15" y="72" text-anchor="start" >■ 点検項目</text>
<text class="tiny" x="195" y="72" text-anchor="end" >○：良好　△：要注意　×：要整備</text>
<rect class="line" x="15" y="77" width="180" height="118"/>
<line class="line2" x1="105" y1="77" x2="105" y2="195"/>
<rect class="shade" x="15" y="77" width="90" height="6"/>
<text class="small" x="17" y="81.2" text-anchor="start" >1. 外観・車体</text>
<line class="line" x1="15" y1="83" x2="105" y2="83"/>
<text class="tiny" x="17" y="87.2" text-anchor="start" >車体の損傷・変形</text>
<rect class="line" x="87" y="84.2" width="3" height="3"/>
<text class="tiny" x="91" y="86.7" text-anchor="start" >○</text>
<rect class="line" x="93" y="84.2" width="3" height="3"/>
<text class="tiny" x="97" y="86.7" text-anchor="start" >△</text>
<rect class="line" x="99" y="84.2" width="3" height="3"/>
<text class="tiny" x="103" y="86.7" text-anchor="start" >×</text>
<line class="line2" x1="87.7" y1="86.6" x2="88.8" y2="87.5"/>
<line class="line2" x1="88.8" y1="87.5" x2="90.2" y2="85.1"/>
<line class="line" x1="15" y1="89" x2="105" y2="89"/>
<text class="tiny" x="17" y="93.2" text-anchor="start" >塗装の状態</text>
<rect class="line" x="87" y="90.2" width="3" height="3"/>
<text class="tiny" x="91" y="92.7" text-anchor="start" >○</text>
<rect class="line" x="93" y="90.2" width="3" height="3"/>
<text class="tiny" x="97" y="92.7" text-anchor="start" >△</text>
<rect class="line" x="99" y="90.2" width="3" height="3"/>
<text class="tiny" x="103" y="92.7" text-anchor="start" >×</text>
<line class="line2" x1="87.7" y1="92.6" x2="88.8" y2="93.5"/>
<line class="line2" x1="88.8" y1="93.5" x2="90.2" y2="91.1"/>
<line class="line" x1="15" y1="95" x2="105" y2="95"/>
<text class="tiny" x="17" y="99.2" text-anchor="start" >ガラス・ミラーの損傷</text>
<rect class="line" x="87" y="96.2" width="3" height="3"/>
<text class="tiny" x="91" y="98.7" text-anchor="start" >○</text>
<rect class="line" x="93" y="96.2" width="3" height="3"/>
<text class="tiny" x="97" y="98.7" text-anchor="start" >△</text>
<rect class="line" x="99" y="96.2" width="3" height="3"/>
<text class="tiny" x="103" y="98.7" text-anchor="start" >×</text>
<line class="line2" x1="87.7" y1="98.6" x2="88.8" y2="99.5"/>
<line class="line2" x1="88.8" y1="99.5" x2="90.2" y2="97.1"/>
<line class="line" x1="15" y1="101" x2="105" y2="101"/>
<text class="tiny" x="17" y="105.2" text-anchor="start" >ナンバープレート</text>
<rect class="line" x="87" y="102.2" width="3" height="3"/>
<text class="tiny" x="91" y="104.7" text-anchor="start" >○</text>
<rect class="line" x="93" y="102.2" width="3" height="3"/>
<text class="tiny" x="97" y="104.7" text-anchor="start" >△</text>
<rect class="line" x="99" y="102.2" width="3" height="3"/>
<text class="tiny" x="103" y="104.7" text-anchor="start" >×</text>
<line class="line2" x1="87.7" y1="104.6" x2="88.8" y2="105.5"/>
<line class="line2" x1="88.8" y1="105.5" x2="90.2" y2="103.1"/>
<rect class="shade" x="15" y="107" width="90" height="6"/>
<text class="small" x="17" y="111.2" text-anchor="start" >2. タイヤ・足回り</text>
<line class="line" x1="15" y1="113" x2="105" y2="113"/>
<text class="tiny" x="17" y="117.2" text-anchor="start" >タイヤの空気圧</text>
<rect class="line" x="87" y="114.2" width="3" height="3"/>
<text class="tiny" x="91" y="116.7" text-anchor="start" >○</text>
<rect class="line" x="93" y="114.2" width="3" height="3"/>
<text class="tiny" x="97" y="116.7" text-anchor="start" >△</text>
<rect class="line" x="99" y="114.2" width="3" height="3"/>
<text class="tiny" x="103" y="116.7" text-anchor="start" >×</text>
<line class="line" x1="15" y1="119" x2="105" y2="119"/>
<text class="tiny" x="17" y="123.2" text-anchor="start" >タイヤの摩耗・亀裂</text>
<rect class="line" x="87" y="120.2" width="3" height="3"/>
<text class="tiny" x="91" y="122.7" text-anchor="start" >○</text>
<rect class="line" x="93" y="120.2" width="3" height="3"/>
<text class="tiny" x="97" y="122.7" text-anchor="start" >△</text>
<rect class="line" x="99" y="120.2" width="3" height="3"/>
<text class="tiny" x="103" y="122.7" text-anchor="start" >×</text>
<line class="line2" x1="87.7" y1="122.6" x2="88.8" y2="123.5"/>
<line class="line2" x1="88.8" y1="123.5" x2="90.2" y2="121.1"/>
<line class="line" x1="15" y1="125" x2="105" y2="125"/>
<text class="tiny" x="17" y="129.2" text-anchor="start" >ホイール・ナットの緩み</text>
<rect class="line" x="87" y="126.2" width="3" height="3"/>
<text class="tiny" x="91" y="128.7" text-anchor="start" >○</text>
<rect class="line" x="93" y="126.2" width="3" height="3"/>
<text class="tiny" x="97" y="128.7" text-anchor="start" >△</text>
<rect class="line" x="99" y="126.2" width="3" height="3"/>
<text class="tiny" x="103" y="128.7" text-anchor="start" >×</text>
<line class="line2" x1="87.7" y1="128.6" x2="88.8" y2="129.5"/>
<line class="line2" x1="88.8" y1="129.5" x2="90.2" y2="127.1"/>
<line class="line" x1="15" y1="131" x2="105" y2="131"/>
<text class="tiny" x="17" y="135.2" text-anchor="start" >サスペンションの状態</text>
<rect class="line" x="87" y="132.2" width="3" height="3"/>
<text class="tiny" x="91" y="134.7" text-anchor="start" >○</text>
<rect class="line" x="93" y="132.2" width="3" height="3"/>
<text class="tiny" x="97" y="134.7" text-anchor="start" >△</text>
<rect class="line" x="99" y="132.2" width="3" height="3"/>
<text class="tiny" x="103" y="134.7" text-anchor="start" >×</text>
<line class="line2" x1="87.7" y1="134.6" x2="88.8" y2="135.5"/>
<line class="line2" x1="88.8" y1="135.5" x2="90.2" y2="133.1"/>
<rect class="shade" x="15" y="137" width="90" height="6"/>
<text class="small" x="17" y="141.2" text-anchor="start" >3. 灯火・電装</text>
<line class="line" x1="15" y1="143" x2="105" y2="143"/>
<text class="tiny" x="17" y="147.2" text-anchor="start" >ヘッドライト</text>
<rect class="line" x="87" y="144.2" width="3" height="3"/>
<text class="tiny" x="91" y="146.7" text-anchor="start" >○</text>
<rect class="line" x="93" y="144.2" width="3" height="3"/>
<text class="tiny" x="97" y="146.7" text-anchor="start" >△</text>
<rect class="line" x="99" y="144.2" width="3" height="3"/>
<text class="tiny" x="103" y="146.7" text-anchor="start" >×</text>
<line class="line2" x1="87.7" y1="146.6" x2="88.8" y2="147.5"/>
<line class="line2" x1="88.8" y1="147.5" x2="90.2" y2="145.1"/>
<line class="line" x1="15" y1="149" x2="105" y2="149"/>
<text class="tiny" x="17" y="153.2" text-anchor="start" >ウィンカー・ハザード</text>
<rect class="line" x="87" y="150.2" width="3" height="3"/>
<text class="tiny" x="91" y="152.7" text-anchor="start" >○</text>
<rect class="line" x="93" y="150.2" width="3" height="3"/>
<text class="tiny" x="97" y="152.7" text-anchor="start" >△</text>
<rect class="line" x="99" y="150.2" width="3" height="3"/>
<text class="tiny" x="103" y="152.7" text-anchor="start" >×</text>
<line class="line" x1="15" y1="155" x2="105" y2="155"/>
<text class="tiny" x="17" y="159.2" text-anchor="start" >ブレーキランプ</text>
<rect class="line" x="87" y="156.2" width="3" height="3"/>
<text class="tiny" x="91" y="158.7" text-anchor="start" >○</text>
<rect class="line" x="93" y="156.2" width="3" height="3"/>
<text class="tiny" x="97" y="158.7" text-anchor="start" >△</text>
<rect class="line" x="99" y="156.2" width="3" height="3"/>
<text class="tiny" x="103" y="158.7" text-anchor="start" >×</text>
<line class="line2" x1="87.7" y1="158.6" x2="88.8" y2="159.5"/>
<line class="line2" x1="88.8" y1="159.5" x2="90.2" y2="157.1"/>
<line class="line" x1="15" y1="161" x2="105" y2="161"/>
<text class="tiny" x="17" y="165.2" text-anchor="start" >バックランプ</text>
<rect class="line" x="87" y="162.2" width="3" height="3"/>
<text class="tiny" x="91" y="164.7" text-anchor="start" >○</text>
<rect class="line" x="93" y="162.2" width="3" height="3"/>
<text class="tiny" x="97" y="164.7" text-anchor="start" >△</text>
<rect class="line" x="99" y="162.2" width="3" height="3"/>
<text class="tiny" x="103" y="164.7" text-anchor="start" >×</text>
<line class="line2" x1="87.7" y1="164.6" x2="88.8" y2="165.5"/>
<line class="line2" x1="88.8" y1="165.5" x2="90.2" y2="163.1"/>
<line class="line" x1="15" y1="167" x2="105" y2="167"/>
<text class="tiny" x="17" y="171.2" text-anchor="start" >ホーン</text>
<rect class="line" x="87" y="168.2" width="3" height="3"/>
<text class="tiny" x="91" y="170.7" text-anchor="start" >○</text>
<rect class="line" x="93" y="168.2" width="3" height="3"/>
<text class="tiny" x="97" y="170.7" text-anchor="start" >△</text>
<rect class="line" x="99" y="168.2" width="3" height="3"/>
<text class="tiny" x="103" y="170.7" text-anchor="start" >×</text>
<line class="line2" x1="87.7" y1="170.6" x2="88.8" y2="171.5"/>
<line class="line2" x1="88.8" y1="171.5" x2="90.2" y2="169.1"/>
<rect class="shade" x="105" y="77" width="90" height="6"/>
<text class="small" x="107" y="81.2" text-anchor="start" >4. エンジン・油脂類</text>
<line class="line" x1="105" y1="83" x2="195" y2="83"/>
<text class="tiny" x="107" y="87.2" text-anchor="start" >始動・異音</text>
<rect class="line" x="177" y="84.2" width="3" height="3"/>
<text class="tiny" x="181" y="86.7" text-anchor="start" >○</text>
<rect class="line" x="183" y="84.2" width="3" height="3"/>
<text class="tiny" x="187" y="86.7" text-anchor="start" >△</text>
<rect class="line" x="189" y="84.2" width="3" height="3"/>
<text class="tiny" x="193" y="86.7" text-anchor="start" >×</text>
<line class="line2" x1="177.7" y1="86.6" x2="178.8" y2="87.5"/>
<line class="line2" x1="178.8" y1="87.5" x2="180.2" y2="85.1"/>
<line class="line" x1="105" y1="89" x2="195" y2="89"/>
<text class="tiny" x="107" y="93.2" text-anchor="start" >エンジンオイル</text>
<rect class="line" x="177" y="90.2" width="3" height="3"/>
<text class="tiny" x="181" y="92.7" text-anchor="start" >○</text>
<rect class="line" x="183" y="90.2" width="3" height="3"/>
<text class="tiny" x="187" y="92.7" text-anchor="start" >△</text>
<rect class="line" x="189" y="90.2" width="3" height="3"/>
<text class="tiny" x="193" y="92.7" text-anchor="start" >×</text>
<line class="line2" x1="177.7" y1="92.6" x2="178.8" y2="93.5"/>
<line class="line2" x1="178.8" y1="93.5" x2="180.2" y2="91.1"/>
<line class="line" x1="105" y1="95" x2="195" y2="95"/>
<text class="tiny" x="107" y="99.2" text-anchor="start" >冷却水（LLC）</text>
<rect class="line" x="177" y="96.2" width="3" height="3"/>
<text class="tiny" x="181" y="98.7" text-anchor="start" >○</text>
<rect class="line" x="183" y="96.2" width="3" height="3"/>
<text class="tiny" x="187" y="98.7" text-anchor="start" >△</text>
<rect class="line" x="189" y="96.2" width="3" height="3"/>
<text class="tiny" x="193" y="98.7" text-anchor="start" >×</text>
<line class="line2" x1="177.7" y1="98.6" x2="178.8" y2="99.5"/>
<line class="line2" x1="178.8" y1="99.5" x2="180.2" y2="97.1"/>
<line class="line" x1="105" y1="101" x2="195" y2="101"/>
<text class="tiny" x="107" y="105.2" text-anchor="start" >ブレーキフルード</text>
<rect class="line" x="177" y="102.2" width="3" height="3"/>
<text class="tiny" x="181" y="104.7" text-anchor="start" >○</text>
<rect class="line" x="183" y="102.2" width="3" height="3"/>
<text class="tiny" x="187" y="104.7" text-anchor="start" >△</text>
<rect class="line" x="189" y="102.2" width="3" height="3"/>
<text class="tiny" x="193" y="104.7" text-anchor="start" >×</text>
<line class="line2" x1="177.7" y1="104.6" x2="178.8" y2="105.5"/>
<line class="line2" x1="178.8" y1="105.5" x2="180.2" y2="103.1"/>
<line class="line" x1="105" y1="107" x2="195" y2="107"/>
<text class="tiny" x="107" y="111.2" text-anchor="start" >ウォッシャー液</text>
<rect class="line" x="177" y="108.2" width="3" height="3"/>
<text class="tiny" x="181" y="110.7" text-anchor="start" >○</text>
<rect class="line" x="183" y="108.2" width="3" height="3"/>
<text class="tiny" x="187" y="110.7" text-anchor="start" >△</text>
<rect class="line" x="189" y="108.2" width="3" height="3"/>
<text class="tiny" x="193" y="110.7" text-anchor="start" >×</text>
<line class="line" x1="105" y1="113" x2="195" y2="113"/>
<text class="tiny" x="107" y="117.2" text-anchor="start" >燃料の量</text>
<rect class="line" x="177" y="114.2" width="3" height="3"/>
<text class="tiny" x="181" y="116.7" text-anchor="start" >○</text>
<rect class="line" x="183" y="114.2" width="3" height="3"/>
<text class="tiny" x="187" y="116.7" text-anchor="start" >△</text>
<rect class="line" x="189" y="114.2" width="3" height="3"/>
<text class="tiny" x="193" y="116.7" text-anchor="start" >×</text>
<line class="line2" x1="177.7" y1="116.6" x2="178.8" y2="117.5"/>
<line class="line2" x1="178.8" y1="117.5" x2="180.2" y2="115.1"/>
<rect class="shade" x="105" y="119" width="90" height="6"/>
<text class="small" x="107" y="123.2" text-anchor="start" >5. ブレーキ・操縦</text>
<line class="line" x1="105" y1="125" x2="195" y2="125"/>
<text class="tiny" x="107" y="129.2" text-anchor="start" >ブレーキの効き</text>
<rect class="line" x="177" y="126.2" width="3" height="3"/>
<text class="tiny" x="181" y="128.7" text-anchor="start" >○</text>
<rect class="line" x="183" y="126.2" width="3" height="3"/>
<text class="tiny" x="187" y="128.7" text-anchor="start" >△</text>
<rect class="line" x="189" y="126.2" width="3" height="3"/>
<text class="tiny" x="193" y="128.7" text-anchor="start" >×</text>
<line class="line2" x1="177.7" y1="128.6" x2="178.8" y2="129.5"/>
<line class="line2" x1="178.8" y1="129.5" x2="180.2" y2="127.1"/>
<line class="line" x1="105" y1="131" x2="195" y2="131"/>
<text class="tiny" x="107" y="135.2" text-anchor="start" >パーキングブレーキ</text>
<rect class="line" x="177" y="132.2" width="3" height="3"/>
<text class="tiny" x="181" y="134.7" text-anchor="start" >○</text>
<rect class="line" x="183" y="132.2" width="3" height="3"/>
<text class="tiny" x="187" y="134.7" text-anchor="start" >△</text>
<rect class="line" x="189" y="132.2" width="3" height="3"/>
<text class="tiny" x="193" y="134.7" text-anchor="start" >×</text>
<line class="line2" x1="177.7" y1="134.6" x2="178.8" y2="135.5"/>
<line class="line2" x1="178.8" y1="135.5" x2="180.2" y2="133.1"/>
<line class="line" x1="105" y1="137" x2="195" y2="137"/>
<text class="tiny" x="107" y="141.2" text-anchor="start" >ハンドルの遊び</text>
<rect class="line" x="177" y="138.2" width="3" height="3"/>
<text class="tiny" x="181" y="140.7" text-anchor="start" >○</text>
<rect class="line" x="183" y="138.2" width="3" height="3"/>
<text class="tiny" x="187" y="140.7" text-anchor="start" >△</text>
<rect class="line" x="189" y="138.2" width="3" height="3"/>
<text class="tiny" x="193" y="140.7" text-anchor="start" >×</text>
<line class="line2" x1="177.7" y1="140.6" x2="178.8" y2="141.5"/>
<line class="line2" x1="178.8" y1="141.5" x2="180.2" y2="139.1"/>
<rect class="shade" x="105" y="143" width="90" height="6"/>
<text class="small" x="107" y="147.2" text-anchor="start" >6. 搭載品・その他</text>
<line class="line" x1="105" y1="149" x2="195" y2="149"/>
<text class="tiny" x="107" y="153.2" text-anchor="start" >工具・ジャッキ・発炎筒</text>
<rect class="line" x="177" y="150.2" width="3" height="3"/>
<text class="tiny" x="181" y="152.7" text-anchor="start" >○</text>
<rect class="line" x="183" y="150.2" width="3" height="3"/>
<text class="tiny" x="187" y="152.7" text-anchor="start" >△</text>
<rect class="line" x="189" y="150.2" width="3" height="3"/>
<text class="tiny" x="193" y="152.7" text-anchor="start" >×</text>
<line class="line" x1="105" y1="155" x2="195" y2="155"/>
<text class="tiny" x="107" y="159.2" text-anchor="start" >予備タイヤ</text>
<rect class="line" x="177" y="156.2" width="3" height="3"/>
<text class="tiny" x="181" y="158.7" text-anchor="start" >○</text>
<rect class="line" x="183" y="156.2" width="3" height="3"/>
<text class="tiny" x="187" y="158.7" text-anchor="start" >△</text>
<rect class="line" x="189" y="156.2" width="3" height="3"/>
<text class="tiny" x="193" y="158.7" text-anchor="start" >×</text>
<line class="line2" x1="177.7" y1="158.6" x2="178.8" y2="159.5"/>
<line class="line2" x1="178.8" y1="159.5" x2="180.2" y2="157.1"/>
<line class="line" x1="105" y1="161" x2="195" y2="161"/>
<text class="tiny" x="107" y="165.2" text-anchor="start" >車載書類</text>
<rect class="line" x="177" y="162.2" width="3" height="3"/>
<text class="tiny" x="181" y="164.7" text-anchor="start" >○</text>
<rect class="line" x="183" y="162.2" width="3" height="3"/>
<text class="tiny" x="187" y="164.7" text-anchor="start" >△</text>
<rect class="line" x="189" y="162.2" width="3" height="3"/>
<text class="tiny" x="193" y="164.7" text-anchor="start" >×</text>
<line class="line2" x1="177.7" y1="164.6" x2="178.8" y2="165.5"/>
<line class="line2" x1="178.8" y1="165.5" x2="180.2" y2="163.1"/>
<line class="line" x1="105" y1="167" x2="195" y2="167"/>
<text class="tiny" x="107" y="171.2" text-anchor="start" >その他</text>
<rect class="line" x="177" y="168.2" width="3" height="3"/>
<text class="tiny" x="181" y="170.7" text-anchor="start" >○</text>
<rect class="line" x="183" y="168.2" width="3" height="3"/>
<text class="tiny" x="187" y="170.7" text-anchor="start" >△</text>
<rect class="line" x="189" y="168.2" width="3" height="3"/>
<text class="tiny" x="193" y="170.7" text-anchor="start" >×</text>
<line class="line2" x1="177.7" y1="170.6" x2="178.8" y2="171.5"/>
<line class="line2" x1="178.8" y1="171.5" x2="180.2" y2="169.1"/>
<rect class="line" x="15" y="200" width="180" height="25"/>
<text class="small" x="17" y="205" text-anchor="start" >特記事項・メモ</text>
<rect class="line" x="15" y="230" width="66" height="25"/>
<text class="small" x="17" y="235" text-anchor="start" >点検者（運転者）</text>
<text class="hand" x="18" y="247" text-anchor="start" >氏名  山田 太郎</text>
<circle class="line" cx="72" cy="244" r="4"/>
<text class="small" x="72" y="245" text-anchor="middle" >山田</text>
<rect class="line" x="84" y="230" width="68" height="25"/>
<text class="small" x="86" y="235" text-anchor="start" >確認者（管理者）</text>
<text class="small" x="87" y="247" text-anchor="start" >氏名</text>
<circle class="line" cx="143" cy="244" r="4"/>
<text class="small" x="143" y="245" text-anchor="middle" >印</text>
<rect class="line" x="155" y="230" width="40" height="25"/>
<text class="small" x="175" y="235" text-anchor="middle" >次回点検予定日</text>
<text class="small" x="175" y="248" text-anchor="middle" >年   月   日</text>
<text class="tiny" x="15" y="264" text-anchor="start" >※異常を発見した場合は、直ちに管理者へ報告してください。</text>
</svg>