<svg xmlns="http://www.w3.org/2000/svg" width="210mm" height="100mm" viewBox="0 0 210 100">
<title>変形小型伝票</title>
<style>
  .paper { fill:#fff; stroke:#111; stroke-width:0.35; }
  .line { stroke:#111; stroke-width:0.35; fill:none; }
  .line2 { stroke:#111; stroke-width:0.7; fill:none; }
  .dash { stroke:#111; stroke-width:0.35; stroke-dasharray:2 1.5; fill:none; }
  .shade { fill:#ededed; stroke:#111; stroke-width:0.35; }
  .txt { font-family:'Yu Gothic','YuGothic','Noto Sans JP',sans-serif; fill:#111; font-size:3.4px; }
  .small { font-family:'Yu Gothic','YuGothic','Noto Sans JP',sans-serif; fill:#111; font-size:2.7px; }
  .tiny { font-family:'Yu Gothic','YuGothic','Noto Sans JP',sans-serif; fill:#111; font-size:2.25px; }
  .head { font-family:'Yu Mincho','YuMincho','Noto Serif JP',serif; fill:#111; font-size:8px; font-weight:700; letter-spacing:1.2px; }
  .subhead { font-family:'Yu Gothic','YuGothic','Noto Sans JP',sans-serif; fill:#111; font-size:4.2px; font-weight:700; }
  .hand { font-family:'Yu Gothic','YuGothic','Noto Sans JP',sans-serif; fill:#222; font-size:3.7px; font-style:italic; }
</style>

<path d="M12 20 L28 8 L170 8 L170 12 L198 12 L198 88 L170 88 L170 92 L28 92 L12 80 Z" fill="#fff" stroke="#111" stroke-width="0.5"/>
<circle cx="18" cy="50" r="4" fill="none" stroke="#111" stroke-width="0.5"/>
<text class="subhead" x="36" y="23" text-anchor="start" >No. 028734</text>
<line class="line" x1="36" y1="29" x2="122" y2="29"/>
<text class="tiny" x="36" y="34" text-anchor="start" >DATE</text>
<text class="hand" x="57" y="34" text-anchor="start" >2026 / 9 / 16</text>
<line class="line" x1="57" y1="35" x2="122" y2="35"/>
<text class="tiny" x="36" y="41" text-anchor="start" >CUSTOMER</text>
<text class="hand" x="57" y="41" text-anchor="start" >田中</text>
<line class="line" x1="57" y1="42" x2="122" y2="42"/>
<text class="tiny" x="36" y="48" text-anchor="start" >ITEM</text>
<text class="hand" x="57" y="48" text-anchor="start" >ジャケット（紺）</text>
<line class="line" x1="57" y1="49" x2="122" y2="49"/>
<rect class="line" x="36" y="55" width="28" height="18"/>
<text class="tiny" x="38" y="60" text-anchor="start" >QTY</text>
<text class="hand" x="50" y="70" text-anchor="middle" >1</text>
<rect class="line" x="66" y="55" width="56" height="18"/>
<text class="tiny" x="68" y="60" text-anchor="start" >AMOUNT</text>
<text class="hand" x="94" y="70" text-anchor="middle" >¥ 2,800</text>
<rect class="line" x="128" y="18" width="35" height="27"/>
<text class="tiny" x="130" y="23" text-anchor="start" >SERVICE</text>
<rect class="line" x="132" y="26.0" width="3" height="3"/>
<line class="line2" x1="132.5" y1="27.6" x2="133.3" y2="28.5"/>
<line class="line2" x1="133.3" y1="28.5" x2="134.6" y2="26.5"/>
<text class="tiny" x="137" y="29.0" text-anchor="start" >CLEANING</text>
<rect class="line" x="132" y="30.5" width="3" height="3"/>
<text class="tiny" x="137" y="33.5" text-anchor="start" >REPAIR</text>
<rect class="line" x="132" y="35.0" width="3" height="3"/>
<text class="tiny" x="137" y="38.0" text-anchor="start" >ALTERATION</text>
<rect class="line" x="132" y="39.5" width="3" height="3"/>
<text class="tiny" x="137" y="42.5" text-anchor="start" >OTHER</text>
<rect class="line" x="128" y="49" width="35" height="14"/>
<text class="tiny" x="130" y="54" text-anchor="start" >DUE DATE</text>
<text class="hand" x="145.5" y="60" text-anchor="middle" >9 / 20</text>
<rect class="line" x="128" y="67" width="35" height="17"/>
<text class="tiny" x="130" y="72" text-anchor="start" >PAID</text>
<rect class="line" x="132" y="74.0" width="3" height="3"/>
<text class="tiny" x="137" y="77.0" text-anchor="start" >CASH</text>
<rect class="line" x="132" y="77.2" width="3" height="3"/>
<text class="tiny" x="137" y="80.2" text-anchor="start" >CARD</text>
<rect class="line" x="132" y="80.4" width="3" height="3"/>
<text class="tiny" x="137" y="83.4" text-anchor="start" >OTHER</text>
<text class="tiny" x="36" y="80" text-anchor="start" >RECEIVED BY</text>
<line class="line" x1="59" y1="82" x2="122" y2="82"/>
<text class="hand" x="83" y="80" text-anchor="middle" >M.S.</text>
<line class="dash" x1="170" y1="12" x2="170" y2="88"/>
<text class="small" x="184" y="24" text-anchor="middle" >No. 028734</text>
<text class="tiny" x="174" y="33" text-anchor="start" >CUSTOMER</text>
<line class="line" x1="174" y1="39" x2="195" y2="39"/>
<text class="hand" x="184.5" y="38" text-anchor="middle" >田中</text>
<text class="tiny" x="174" y="48" text-anchor="start" >ITEM</text>
<line class="line" x1="174" y1="54" x2="195" y2="54"/>
<text class="small" x="184.5" y="53" text-anchor="middle" >JACKET</text>
<text class="tiny" x="174" y="67" text-anchor="start" >DUE</text>
<line class="line" x1="174" y1="73" x2="195" y2="73"/>
<text class="hand" x="184.5" y="72" text-anchor="middle" >9 / 20</text>
<text class="subhead" x="16" y="62" text-anchor="start" >CLAIM</text>
<text class="subhead" x="16" y="68" text-anchor="start" >CHECK</text>
<text class="tiny" x="16" y="74" text-anchor="start" >PRESENT STUB</text>
</svg>