<svg xmlns="http://www.w3.org/2000/svg" width="210mm" height="297mm" viewBox="0 0 210 297">
  <style>
    .label { fill:#243447; font-family:'Yu Gothic',sans-serif; font-size:3.1px; }
    .line { fill:#fff; stroke:#728096; stroke-width:.22; }
    .row-alt { fill:#f3f7fb; }
    .header { fill:#0b3954; }
    .accent { fill:#e36414; }
    .header-text { fill:#fff; font-size:8px; font-weight:700; }
    .table-head { fill:#3282b8; }
    .table-head-text { fill:#fff; font-family:'Yu Gothic',sans-serif; font-size:3.1px; }
  </style>
  <rect class="header" x="10" y="10" width="190" height="18" rx="1.5"/>
  <rect class="accent" x="10" y="10" width="5" height="18" rx="1.5"/>
  <text class="header-text" x="20" y="21">請 求 明 細 一 覧 表</text>
  <rect id="issuer_logo_box" class="line" x="145" y="12" width="50" height="14"/>

  <text class="label" x="12" y="37">請求先</text>
  <rect id="customer_name_box" class="line" x="12" y="40" width="105" height="8"/>
  <rect id="customer_address_box" class="line" x="12" y="50" width="105" height="18"/>
  <text class="label" x="132" y="37">請求番号</text>
  <rect id="invoice_number_box" class="line" x="132" y="40" width="66" height="7"/>
  <text class="label" x="132" y="51">発行日</text>
  <rect id="issue_date_box" class="line" x="132" y="54" width="66" height="7"/>
  <text class="label" x="132" y="65">支払期限</text>
  <rect id="due_date_box" class="line" x="132" y="68" width="66" height="7"/>

  <rect class="table-head" x="12" y="81" width="186" height="7"/>
  <text class="table-head-text" x="15" y="86">No.</text><text class="table-head-text" x="25" y="86">品目・摘要（※長文は折り返し）</text><text class="table-head-text" x="116" y="86">数量</text><text class="table-head-text" x="139" y="86">単価</text><text class="table-head-text" x="174" y="86">金額</text>
  <g>
    <rect class="row-alt" x="12" y="88" width="186" height="11"/><rect class="line" x="12" y="88" width="13" height="11"/><rect id="item_0_name_box" class="line" x="25" y="88" width="86" height="11"/><rect id="item_0_quantity_box" class="line" x="111" y="88" width="23" height="11"/><rect id="item_0_unit_price_box" class="line" x="134" y="88" width="32" height="11"/><rect id="item_0_amount_box" class="line" x="166" y="88" width="32" height="11"/>
    <rect class="line" x="12" y="99" width="13" height="11"/><rect id="item_1_name_box" class="line" x="25" y="99" width="86" height="11"/><rect id="item_1_quantity_box" class="line" x="111" y="99" width="23" height="11"/><rect id="item_1_unit_price_box" class="line" x="134" y="99" width="32" height="11"/><rect id="item_1_amount_box" class="line" x="166" y="99" width="32" height="11"/>
    <rect class="row-alt" x="12" y="110" width="186" height="11"/><rect class="line" x="12" y="110" width="13" height="11"/><rect id="item_2_name_box" class="line" x="25" y="110" width="86" height="11"/><rect id="item_2_quantity_box" class="line" x="111" y="110" width="23" height="11"/><rect id="item_2_unit_price_box" class="line" x="134" y="110" width="32" height="11"/><rect id="item_2_amount_box" class="line" x="166" y="110" width="32" height="11"/>
    <rect class="line" x="12" y="121" width="13" height="11"/><rect id="item_3_name_box" class="line" x="25" y="121" width="86" height="11"/><rect id="item_3_quantity_box" class="line" x="111" y="121" width="23" height="11"/><rect id="item_3_unit_price_box" class="line" x="134" y="121" width="32" height="11"/><rect id="item_3_amount_box" class="line" x="166" y="121" width="32" height="11"/>
    <rect class="row-alt" x="12" y="132" width="186" height="11"/><rect class="line" x="12" y="132" width="13" height="11"/><rect id="item_4_name_box" class="line" x="25" y="132" width="86" height="11"/><rect id="item_4_quantity_box" class="line" x="111" y="132" width="23" height="11"/><rect id="item_4_unit_price_box" class="line" x="134" y="132" width="32" height="11"/><rect id="item_4_amount_box" class="line" x="166" y="132" width="32" height="11"/>
    <rect class="line" x="12" y="143" width="13" height="11"/><rect id="item_5_name_box" class="line" x="25" y="143" width="86" height="11"/><rect id="item_5_quantity_box" class="line" x="111" y="143" width="23" height="11"/><rect id="item_5_unit_price_box" class="line" x="134" y="143" width="32" height="11"/><rect id="item_5_amount_box" class="line" x="166" y="143" width="32" height="11"/>
    <rect class="row-alt" x="12" y="154" width="186" height="11"/><rect class="line" x="12" y="154" width="13" height="11"/><rect id="item_6_name_box" class="line" x="25" y="154" width="86" height="11"/><rect id="item_6_quantity_box" class="line" x="111" y="154" width="23" height="11"/><rect id="item_6_unit_price_box" class="line" x="134" y="154" width="32" height="11"/><rect id="item_6_amount_box" class="line" x="166" y="154" width="32" height="11"/>
    <rect class="line" x="12" y="165" width="13" height="11"/><rect id="item_7_name_box" class="line" x="25" y="165" width="86" height="11"/><rect id="item_7_quantity_box" class="line" x="111" y="165" width="23" height="11"/><rect id="item_7_unit_price_box" class="line" x="134" y="165" width="32" height="11"/><rect id="item_7_amount_box" class="line" x="166" y="165" width="32" height="11"/>
    <rect class="row-alt" x="12" y="176" width="186" height="11"/><rect class="line" x="12" y="176" width="13" height="11"/><rect id="item_8_name_box" class="line" x="25" y="176" width="86" height="11"/><rect id="item_8_quantity_box" class="line" x="111" y="176" width="23" height="11"/><rect id="item_8_unit_price_box" class="line" x="134" y="176" width="32" height="11"/><rect id="item_8_amount_box" class="line" x="166" y="176" width="32" height="11"/>
    <rect class="line" x="12" y="187" width="13" height="11"/><rect id="item_9_name_box" class="line" x="25" y="187" width="86" height="11"/><rect id="item_9_quantity_box" class="line" x="111" y="187" width="23" height="11"/><rect id="item_9_unit_price_box" class="line" x="134" y="187" width="32" height="11"/><rect id="item_9_amount_box" class="line" x="166" y="187" width="32" height="11"/>
    <rect class="row-alt" x="12" y="198" width="186" height="11"/><rect class="line" x="12" y="198" width="13" height="11"/><rect id="item_10_name_box" class="line" x="25" y="198" width="86" height="11"/><rect id="item_10_quantity_box" class="line" x="111" y="198" width="23" height="11"/><rect id="item_10_unit_price_box" class="line" x="134" y="198" width="32" height="11"/><rect id="item_10_amount_box" class="line" x="166" y="198" width="32" height="11"/>
    <rect class="line" x="12" y="209" width="13" height="11"/><rect id="item_11_name_box" class="line" x="25" y="209" width="86" height="11"/><rect id="item_11_quantity_box" class="line" x="111" y="209" width="23" height="11"/><rect id="item_11_unit_price_box" class="line" x="134" y="209" width="32" height="11"/><rect id="item_11_amount_box" class="line" x="166" y="209" width="32" height="11"/>
    <text class="label" x="16" y="95">1</text><text class="label" x="16" y="106">2</text><text class="label" x="16" y="117">3</text><text class="label" x="16" y="128">4</text><text class="label" x="16" y="139">5</text><text class="label" x="16" y="150">6</text><text class="label" x="16" y="161">7</text><text class="label" x="16" y="172">8</text><text class="label" x="16" y="183">9</text><text class="label" x="15" y="194">10</text><text class="label" x="15" y="205">11</text><text class="label" x="15" y="216">12</text>
  </g>
  <text class="label" x="123" y="232">小計</text><rect id="subtotal_box" class="line" x="166" y="226" width="32" height="8"/>
  <text class="label" x="123" y="243">消費税</text><rect id="tax_box" class="line" x="166" y="237" width="32" height="8"/>
  <text class="label" x="123" y="256">請求合計</text><rect id="total_box" class="line" x="152" y="259" width="46" height="12"/>
  <text class="label" x="12" y="232">備考・記号凡例</text><rect id="note_box" class="line" x="12" y="235" width="100" height="38"/>
  <rect id="payment_qr_box" class="line" x="165" y="275" width="25" height="17"/>
  <rect id="issuer_name_box" class="line" x="12" y="277" width="65" height="7"/><rect id="issuer_address_box" class="line" x="12" y="285" width="120" height="10"/>
</svg>
